<svg aria-hidden="true" style="width:0;height:0;position:absolute;overflow:hidden" xmlns="http://www.w3.org/2000/svg"><defs><symbol id="icon-triangle" viewBox="0 0 64 32"><path d="M.05.04c0 .02 7.19 7.225 15.975 16.01L32 32.02l15.975-15.97C56.76 7.265 63.95.06 63.95.04 63.95.015 49.575 0 32 0S.05.015.05.04z"/></symbol><symbol id="icon-sort-amount-asc" viewBox="0 0 32 32"><path d="M10 24V0H6v24H1l7 7 7-7h-5z"/><path d="M14 18h18v4H14v-4zM14 12h14v4H14v-4zM14 6h10v4H14V6zM14 0h6v4h-6V0z"/></symbol><symbol id="icon-sort-amount-desc" viewBox="0 0 32 32"><path d="M10 24V0H6v24H1l7 7 7-7h-5zM14 0h18v4H14V0zM14 6h14v4H14V6zM14 12h10v4H14v-4z"/><path d="M14 18h6v4h-6v-4z"/></symbol></defs></svg>