<svg aria-hidden="true" style="width:0;height:0;position:absolute;overflow:hidden" xmlns="http://www.w3.org/2000/svg"><defs><symbol id="icon-loader" viewBox="0 0 243.6 205"><path class="film" d="M121.8 13.5c-49.2 0-89 39.8-89 89s39.8 89 89 89 89-39.8 89-89-39.8-89-89-89zm0 18.7c11 0 20 8.9 20 20 0 11-8.9 20-20 20s-20-8.9-20-20 9-20 20-20zM54.9 80.8C58.3 70.3 69.6 64.6 80.1 68c10.5 3.4 16.2 14.7 12.8 25.2-3.4 10.5-14.7 16.2-25.2 12.8-10.4-3.5-16.2-14.7-12.8-25.2zm53.5 74.2c-6.5 8.9-19 10.9-27.9 4.4-8.9-6.5-10.9-19-4.4-27.9 6.5-8.9 19-10.9 27.9-4.4 8.9 6.5 10.8 19 4.4 27.9zm13.4-42.1c-5.8 0-10.4-4.7-10.4-10.4 0-5.8 4.7-10.4 10.4-10.4 5.8 0 10.4 4.7 10.4 10.4 0 5.8-4.6 10.4-10.4 10.4zm41.3 46.5c-8.9 6.5-21.4 4.5-27.9-4.4s-4.5-21.4 4.4-27.9 21.4-4.5 27.9 4.4 4.6 21.4-4.4 27.9zm12.8-53.5c-10.5 3.4-21.8-2.3-25.2-12.8-3.4-10.5 2.3-21.8 12.8-25.2 10.5-3.4 21.8 2.3 25.2 12.8 3.4 10.6-2.3 21.8-12.8 25.2z"/></symbol></defs></svg>