<!-- <svg aria-hidden="true" style="position: absolute; width: 0; height: 0; overflow: hidden;" version="1.1" xmlns="http://www.w3.org/2000/svg" xmlns:xlink="http://www.w3.org/1999/xlink">
<defs>
<symbol id="icon-video-camera" viewBox="0 0 32 32">
<path d="M12 9c0-2.761 2.239-5 5-5s5 2.239 5 5c0 2.761-2.239 5-5 5s-5-2.239-5-5zM0 9c0-2.761 2.239-5 5-5s5 2.239 5 5c0 2.761-2.239 5-5 5s-5-2.239-5-5zM24 19v-3c0-1.1-0.9-2-2-2h-20c-1.1 0-2 0.9-2 2v10c0 1.1 0.9 2 2 2h20c1.1 0 2-0.9 2-2v-3l8 5v-14l-8 5zM20 24h-16v-6h16v6z"></path>
</symbol>
<symbol id="icon-film" viewBox="0 0 32 32">
<path d="M0 4v24h32v-24h-32zM6 26h-4v-4h4v4zM6 18h-4v-4h4v4zM6 10h-4v-4h4v4zM24 26h-16v-20h16v20zM30 26h-4v-4h4v4zM30 18h-4v-4h4v4zM30 10h-4v-4h4v4zM12 10v12l8-6z"></path>
</symbol>
</defs>
</svg> -->

<!-- <svg class="loader" xmlns="http://www.w3.org/2000/svg" viewBox="0 0 243.6 205"><style type="text/css">  
</style><path class="st0" d="M132.7 190.5c-1.4 0-2.5-1.1-2.5-2.5 0-1.4 1.1-2.5 2.5-2.5 9.5 0 18.8-3.7 25.8-7 2.5-1.2 5.1-2.4 7.5-3.6 5.8-2.9 11.9-5.9 18.2-8 10.6-3.6 22-4.8 32.8-3.4 10.7 1.4 19.6 5.3 25.7 11.2 1 0.9 1 2.5 0 3.5 -0.9 1-2.5 1-3.5 0 -6.8-6.6-16.2-9-22.9-9.9 -10.1-1.3-20.7-0.2-30.6 3.1 -6 2-11.9 4.9-17.6 7.8 -2.5 1.2-5.1 2.5-7.6 3.7C153.1 186.5 143.2 190.5 132.7 190.5 132.7 190.5 132.7 190.5 132.7 190.5z"/><path class="film st0" d="M121.8 13.5c-49.2 0-89 39.8-89 89s39.8 89 89 89 89-39.8 89-89S171 13.5 121.8 13.5zM121.8 32.2c11 0 20 8.9 20 20 0 11-8.9 20-20 20s-20-8.9-20-20C101.8 41.1 110.8 32.2 121.8 32.2zM54.9 80.8c3.4-10.5 14.7-16.2 25.2-12.8 10.5 3.4 16.2 14.7 12.8 25.2 -3.4 10.5-14.7 16.2-25.2 12.8C57.3 102.5 51.5 91.3 54.9 80.8zM108.4 155c-6.5 8.9-19 10.9-27.9 4.4 -8.9-6.5-10.9-19-4.4-27.9 6.5-8.9 19-10.9 27.9-4.4C112.9 133.6 114.8 146.1 108.4 155zM121.8 112.9c-5.8 0-10.4-4.7-10.4-10.4 0-5.8 4.7-10.4 10.4-10.4 5.8 0 10.4 4.7 10.4 10.4C132.2 108.3 127.6 112.9 121.8 112.9zM163.1 159.4c-8.9 6.5-21.4 4.5-27.9-4.4 -6.5-8.9-4.5-21.4 4.4-27.9 8.9-6.5 21.4-4.5 27.9 4.4C174 140.4 172.1 152.9 163.1 159.4zM175.9 105.9c-10.5 3.4-21.8-2.3-25.2-12.8 -3.4-10.5 2.3-21.8 12.8-25.2 10.5-3.4 21.8 2.3 25.2 12.8C192.1 91.3 186.4 102.5 175.9 105.9z"/></svg> -->


<svg aria-hidden="true" style="position: absolute; width: 0; height: 0; overflow: hidden;" version="1.1" xmlns="http://www.w3.org/2000/svg" xmlns:xlink="http://www.w3.org/1999/xlink">
<defs>
<symbol id="icon-filmoteca" viewBox="0 0 32 32">
<path fill="none" stroke="#818181" style="stroke: var(--color1, #ff6b08)" stroke-linejoin="round" stroke-linecap="round" stroke-miterlimit="4" stroke-width="2.6667" 
d="M26.427 2.667h-20.853c-1.605 0-2.907 1.301-2.907 2.907v0 20.853c0 1.605 1.301 2.907 2.907 2.907v0h20.853c1.605 0 2.907-1.301 2.907-2.907v0-20.853c0-1.605-1.301-2.907-2.907-2.907v0zM9.333 2.667v26.667M22.667 2.667v26.667M2.667 16h26.667M2.667 9.333h6.667M2.667 22.667h6.667M22.667 22.667h6.667M22.667 9.333h6.667"></path>
</symbol>
<symbol id="icon-movie-clapper-open-svgrepo-com" viewBox="0 0 32 32">
<path d="M6.861 13.529c-0.058-0.489-0.231-0.942-0.493-1.333l23.413-7.817-1.229-3.681c-0.179-0.535-0.757-0.824-1.292-0.645l-25.468 8.503c-0.535 0.178-0.824 0.757-0.645 1.292l0.603 1.805c-0.602 0.559-0.979 1.355-0.979 2.239 0 1.145 0.633 2.144 1.567 2.667v14.42c0 0.564 0.458 1.021 1.021 1.021h26.85c0.563 0 1.021-0.457 1.021-1.021v-17.45h-24.368zM21.784 3.082l3.1-1.035-0.746 3.015-3.1 1.035 0.746-3.015zM14.125 5.639l3.1-1.035-0.746 3.015-3.1 1.035 0.746-3.015zM3.827 15.449c-0.858 0-1.557-0.698-1.557-1.557s0.699-1.557 1.557-1.557c0.859 0 1.557 0.698 1.557 1.557s-0.699 1.557-1.557 1.557zM6.467 8.196l3.1-1.035-0.746 3.015-3.1 1.035 0.746-3.015zM9.513 16.977h-3.268l1.662-2.623h3.268l-1.662 2.623zM15.98 14.353h3.268l-1.662 2.623h-3.268l1.662-2.623zM15.178 27.032v-6.92l5.511 3.46-5.511 3.46zM25.66 16.977h-3.268l1.662-2.623h3.268l-1.662 2.623z"></path>
</symbol>
</defs>
</svg>

