<svg aria-hidden="true" style="position: absolute; width: 0; height: 0; overflow: hidden;" version="1.1" xmlns="http://www.w3.org/2000/svg" xmlns:xlink="http://www.w3.org/1999/xlink">
<defs>
<symbol id="icon-loader" viewBox="0 0 243.6 205">
<!-- <path d="M132.7 190.5c-1.4 0-2.5-1.1-2.5-2.5 0-1.4 1.1-2.5 2.5-2.5 9.5 0 18.8-3.7 25.8-7 2.5-1.2 5.1-2.4 7.5-3.6 5.8-2.9 11.9-5.9 18.2-8 10.6-3.6 22-4.8 32.8-3.4 10.7 1.4 19.6 5.3 25.7 11.2 1 0.9 1 2.5 0 3.5 -0.9 1-2.5 1-3.5 0 -6.8-6.6-16.2-9-22.9-9.9 -10.1-1.3-20.7-0.2-30.6 3.1 -6 2-11.9 4.9-17.6 7.8 -2.5 1.2-5.1 2.5-7.6 3.7C153.1 186.5 143.2 190.5 132.7 190.5 132.7 190.5 132.7 190.5 132.7 190.5z"/> -->
<path class="film" d="M121.8 13.5c-49.2 0-89 39.8-89 89s39.8 89 89 89 89-39.8 89-89S171 13.5 121.8 13.5zM121.8 32.2c11 0 20 8.9 20 20 0 11-8.9 20-20 20s-20-8.9-20-20C101.8 41.1 110.8 32.2 121.8 32.2zM54.9 80.8c3.4-10.5 14.7-16.2 25.2-12.8 10.5 3.4 16.2 14.7 12.8 25.2 -3.4 10.5-14.7 16.2-25.2 12.8C57.3 102.5 51.5 91.3 54.9 80.8zM108.4 155c-6.5 8.9-19 10.9-27.9 4.4 -8.9-6.5-10.9-19-4.4-27.9 6.5-8.9 19-10.9 27.9-4.4C112.9 133.6 114.8 146.1 108.4 155zM121.8 112.9c-5.8 0-10.4-4.7-10.4-10.4 0-5.8 4.7-10.4 10.4-10.4 5.8 0 10.4 4.7 10.4 10.4C132.2 108.3 127.6 112.9 121.8 112.9zM163.1 159.4c-8.9 6.5-21.4 4.5-27.9-4.4 -6.5-8.9-4.5-21.4 4.4-27.9 8.9-6.5 21.4-4.5 27.9 4.4C174 140.4 172.1 152.9 163.1 159.4zM175.9 105.9c-10.5 3.4-21.8-2.3-25.2-12.8 -3.4-10.5 2.3-21.8 12.8-25.2 10.5-3.4 21.8 2.3 25.2 12.8C192.1 91.3 186.4 102.5 175.9 105.9z"/>
</symbol>
</defs>
</svg>


